<svg width="254" height="82" viewBox="0 0 254 82" fill="none" xmlns="http://www.w3.org/2000/svg"><g clip-path="url(#clip0)"><path d="M68.4226 27.1625V45.8044C68.4226 53.5886 54.6235 57.8157 41.6058 57.8157C28.5881 57.8157 14.7891 53.5886 14.7891 45.8044V27.1625C14.7919 26.527 15.0495 25.9183 15.5057 25.469C15.9619 25.0198 16.5797 24.7664 17.2247 24.764H65.987C66.6319 24.7664 67.2498 25.0198 67.706 25.469C68.1622 25.9183 68.4197 26.527 68.4226 27.1625Z" fill="#373737"/><path d="M68.4227 27.1625V45.8044C68.4227 53.5886 54.6237 57.8157 41.606 57.8157V24.764H65.9871C66.6321 24.7664 67.2499 25.0198 67.7061 25.469C68.1623 25.9183 68.4199 26.527 68.4227 27.1625Z" fill="#595959"/><path d="M83.212 21.7817C83.2148 22.2694 83.0671 22.7466 82.7884 23.1497C82.5098 23.5529 82.1134 23.8631 81.6517 24.0391L42.4829 38.4531C41.9143 38.6458 41.2966 38.6458 40.728 38.4531L1.56006 24.0391V19.5226L40.7288 5.1086C41.2976 4.91667 41.915 4.91667 42.4838 5.1086L81.6517 19.5226C82.1135 19.6989 82.51 20.0094 82.7886 20.4128C83.0672 20.8163 83.2149 21.2936 83.212 21.7817Z" fill="#484848"/><path d="M83.212 21.7816C83.2149 22.2694 83.0672 22.7465 82.7885 23.1497C82.5099 23.5528 82.1134 23.863 81.6518 24.0391L42.483 38.453C42.2006 38.5478 41.9043 38.5965 41.606 38.5974V4.96507C41.9042 4.96597 42.2004 5.01443 42.483 5.10856L81.651 19.5225C82.1129 19.6987 82.5095 20.0092 82.7883 20.4126C83.0671 20.8161 83.2149 21.2935 83.212 21.7816Z" fill="#4A4A4A"/><path d="M44.0441 21.7817C44.0473 22.098 43.9864 22.4118 43.865 22.7047C43.7436 22.9976 43.5642 23.2637 43.3371 23.4874C43.11 23.711 42.84 23.8878 42.5427 24.0073C42.2455 24.1269 41.927 24.1867 41.6059 24.1834H4.87529V59.8338L9.60423 73.864C9.71177 74.1617 9.75821 74.4775 9.74084 74.793C9.72348 75.1086 9.64265 75.4176 9.50306 75.7021C9.36348 75.9867 9.16791 76.241 8.92772 76.4504C8.68754 76.6598 8.40752 76.8201 8.10394 76.922C7.80036 77.0238 7.47927 77.0652 7.15931 77.0437C6.83936 77.0223 6.52692 76.9384 6.24015 76.7969C5.95339 76.6554 5.698 76.4592 5.48884 76.2197C5.27967 75.9801 5.1209 75.702 5.02174 75.4015L4.87529 74.9693C4.77884 75.5405 4.4819 76.0602 4.03631 76.4378C3.59071 76.8153 3.02474 77.0266 2.43717 77.0349C2.1162 77.0381 1.79782 76.9781 1.50066 76.8585C1.2035 76.739 0.933529 76.5622 0.70656 76.3385C0.479592 76.1149 0.300185 75.8488 0.178842 75.556C0.0574996 75.2631 -0.00333968 74.9494 -0.000113651 74.6331V21.7817C-0.00345298 21.4652 0.0573304 21.1513 0.178675 20.8583C0.300019 20.5654 0.479483 20.2992 0.706552 20.0754C0.93362 19.8517 1.20372 19.6748 1.50104 19.5552C1.79835 19.4357 2.1169 19.3758 2.438 19.3791H41.6059C41.9271 19.3758 42.2456 19.4357 42.5429 19.5552C42.8402 19.6748 43.1103 19.8517 43.3374 20.0754C43.5645 20.2992 43.7439 20.5654 43.8653 20.8583C43.9866 21.1513 44.0474 21.4652 44.0441 21.7817Z" fill="#DE9E53"/><path d="M98.5872 26.9944V33.8824H107.973V38.2514H98.5872V45.533H109.174V50.02H92.9978V22.5074H109.174V26.9944H98.5872ZM122.719 50.3742C121.045 50.4013 119.384 50.0794 117.846 49.4296C116.498 48.843 115.318 47.9371 114.411 46.7925C113.601 45.7316 113.128 44.4577 113.053 43.132H118.685C118.736 43.5446 118.872 43.9425 119.085 44.3013C119.298 44.6601 119.583 44.9721 119.923 45.2181C120.723 45.7863 121.693 46.0769 122.679 46.0446C123.551 46.0966 124.417 45.8763 125.155 45.4149C125.435 45.2452 125.666 45.0078 125.826 44.7253C125.986 44.4429 126.07 44.1247 126.07 43.8011C126.072 43.457 125.965 43.1208 125.765 42.8388C125.565 42.5569 125.281 42.343 124.952 42.2267C123.836 41.7207 122.672 41.3252 121.477 41.0459C120.091 40.733 118.728 40.3253 117.4 39.8258C116.354 39.4008 115.424 38.7403 114.684 37.8971C113.894 36.9007 113.497 35.6565 113.565 34.3941C113.557 33.2128 113.92 32.058 114.604 31.0878C115.381 30.045 116.43 29.2289 117.639 28.7262C119.122 28.1193 120.717 27.8244 122.322 27.8603C124.597 27.744 126.839 28.4431 128.633 29.8283C129.414 30.4725 130.049 31.2715 130.496 32.1734C130.943 33.0753 131.193 34.0599 131.229 35.0632H125.877C125.852 34.662 125.74 34.2707 125.547 33.9167C125.354 33.5626 125.085 33.2543 124.758 33.0132C124.015 32.4551 123.095 32.176 122.162 32.226C121.339 32.1791 120.52 32.3707 119.805 32.777C119.55 32.9444 119.343 33.1734 119.203 33.4421C119.063 33.7108 118.996 34.0103 119.007 34.3121C119.006 34.6708 119.111 35.0221 119.31 35.3227C119.508 35.6233 119.792 35.8603 120.125 36.0046C121.242 36.4973 122.406 36.8796 123.6 37.146C124.945 37.4609 126.267 37.8686 127.554 38.3662C128.599 38.7909 129.52 39.4676 130.23 40.3342C131.042 41.3079 131.467 42.5385 131.428 43.7978C131.443 45.0108 131.064 46.1966 130.347 47.1828C129.583 48.2379 128.532 49.058 127.314 49.5477C125.856 50.1273 124.293 50.4085 122.721 50.3742H122.719ZM142.523 32.7442V43.2894C142.498 43.5789 142.53 43.8704 142.619 44.1474C142.709 44.4243 142.852 44.6812 143.042 44.9032C143.581 45.2656 144.23 45.4326 144.88 45.3755H147.476V50.02H143.961C139.246 50.02 136.888 47.7634 136.888 43.2501V32.741H134.252V28.2146H136.888V22.8222H142.52V28.2146H147.473V32.741L142.523 32.7442ZM172.388 28.2178V50.02H166.756V47.2648C166.014 48.2291 165.042 48.9994 163.928 49.5083C162.75 50.04 161.468 50.3088 160.173 50.2955C158.576 50.3259 156.996 49.9593 155.58 49.2295C154.24 48.4864 153.145 47.3798 152.425 46.0414C151.645 44.4755 151.261 42.747 151.306 41.0033V28.2113H156.898V40.2161C156.802 41.6719 157.274 43.109 158.216 44.2341C158.682 44.701 159.244 45.0653 159.864 45.3027C160.483 45.5402 161.147 45.6455 161.811 45.6117C162.481 45.6479 163.151 45.5439 163.778 45.3065C164.404 45.069 164.973 44.7035 165.446 44.2341C166.388 43.109 166.86 41.6719 166.764 40.2161V28.2146L172.388 28.2178ZM176.465 39.0418C176.426 37.0115 176.877 35.0011 177.783 33.1772C178.612 31.5534 179.885 30.1901 181.458 29.2412C183.013 28.32 184.797 27.843 186.611 27.8636C188.038 27.8611 189.446 28.1844 190.725 28.8082C191.954 29.3522 193.025 30.1913 193.84 31.2486V20.8936H199.512V50.02H193.84V46.7925C193.118 47.8956 192.113 48.7916 190.928 49.3902C189.581 50.0682 188.085 50.4063 186.574 50.3742C184.768 50.3903 182.994 49.8988 181.461 48.9573C179.892 47.9863 178.622 46.6118 177.787 44.9819C176.882 43.1297 176.432 41.0938 176.473 39.0386L176.465 39.0418ZM193.884 39.114C193.92 37.924 193.645 36.7449 193.085 35.6897C192.598 34.7648 191.849 33.9991 190.928 33.4855C190.052 32.9768 189.055 32.7053 188.038 32.6984C187.021 32.6915 186.02 32.9494 185.137 33.4462C184.229 33.976 183.485 34.7391 182.983 35.6536C182.427 36.6958 182.152 37.8614 182.185 39.0386C182.159 40.2402 182.433 41.4297 182.983 42.5022C183.493 43.4217 184.236 44.1948 185.14 44.7458C186.009 45.2605 187.003 45.5326 188.016 45.533C189.036 45.5368 190.04 45.2791 190.928 44.7851C191.837 44.257 192.583 43.495 193.085 42.581C193.642 41.5095 193.917 40.3174 193.884 39.114ZM203.537 39.032C203.497 37.0017 203.949 34.9913 204.855 33.1674C205.677 31.5515 206.934 30.1898 208.49 29.2314C210.044 28.3102 211.828 27.8332 213.642 27.8538C215.141 27.8184 216.625 28.1568 217.956 28.8378C219.132 29.4307 220.156 30.2785 220.951 31.3174V28.2146H226.587V50.02H220.955V46.8318C220.176 47.9066 219.149 48.7836 217.959 49.3902C216.613 50.0682 215.117 50.4063 213.605 50.3742C211.799 50.3903 210.026 49.8988 208.493 48.9573C206.942 47.9768 205.687 46.6038 204.858 44.9819C203.953 43.1298 203.502 41.0939 203.543 39.0386L203.537 39.032ZM220.951 39.114C220.987 37.924 220.712 36.7449 220.153 35.6897C219.665 34.7648 218.916 33.9991 217.996 33.4855C217.119 32.9768 216.122 32.7053 215.105 32.6984C214.088 32.6915 213.088 32.9494 212.204 33.4462C211.296 33.9747 210.55 34.7366 210.047 35.6503C209.491 36.6925 209.216 37.8581 209.248 39.0353C209.223 40.2369 209.497 41.4264 210.047 42.499C210.557 43.4184 211.3 44.1915 212.204 44.7425C213.073 45.2572 214.067 45.5293 215.08 45.5297C216.1 45.5335 217.104 45.2758 217.992 44.7818C218.901 44.2537 219.647 43.4917 220.149 42.5777C220.709 41.508 220.987 40.317 220.957 39.114H220.951Z" fill="white"/><path d="M254 17.9088H246.451V25.5446H241.179V17.9088H233.63V13.1069H241.179V5.47104H246.451V13.1069H254V17.9088Z" fill="white"/></g><defs><clipPath id="clip0"><rect width="254" height="82" fill="white"/></clipPath></defs></svg>