<svg width="254" height="82" viewBox="0 0 254 82" fill="none" xmlns="http://www.w3.org/2000/svg">
<g clip-path="url(#clip0)">
<path d="M68.4228 27.1625V45.8044C68.4228 53.5886 54.6238 57.8157 41.6061 57.8157C28.5884 57.8157 14.7893 53.5886 14.7893 45.8044V27.1625C14.7922 26.527 15.0497 25.9183 15.5059 25.469C15.9621 25.0198 16.58 24.7664 17.2249 24.764H65.9872C66.6322 24.7664 67.25 25.0198 67.7062 25.469C68.1624 25.9183 68.42 26.527 68.4228 27.1625V27.1625Z" fill="#373737"/>
<path d="M68.4229 27.1625V45.8044C68.4229 53.5886 54.6238 57.8157 41.6061 57.8157V24.764H65.9872C66.6322 24.7664 67.25 25.0198 67.7062 25.469C68.1624 25.9183 68.42 26.527 68.4229 27.1625V27.1625Z" fill="#595959"/>
<path d="M83.2122 21.7817C83.215 22.2695 83.0673 22.7466 82.7887 23.1497C82.51 23.5529 82.1136 23.8631 81.652 24.0391L42.4832 38.4531C41.9145 38.6458 41.2969 38.6458 40.7282 38.4531L1.5603 24.0391V19.5226L40.7291 5.10861C41.2978 4.91668 41.9153 4.91668 42.484 5.10861L81.652 19.5226C82.1137 19.6989 82.5102 20.0094 82.7889 20.4128C83.0675 20.8163 83.2151 21.2937 83.2122 21.7817V21.7817Z" fill="#484848"/>
<path d="M83.2121 21.7816C83.215 22.2694 83.0673 22.7465 82.7886 23.1497C82.51 23.5528 82.1136 23.863 81.6519 24.0391L42.4831 38.453C42.2007 38.5478 41.9044 38.5965 41.6061 38.5974V4.96506C41.9044 4.96596 42.2006 5.01442 42.4831 5.10856L81.6511 19.5225C82.113 19.6987 82.5097 20.0092 82.7885 20.4126C83.0673 20.8161 83.215 21.2935 83.2121 21.7816Z" fill="#4A4A4A"/>
<path d="M44.0442 21.7817C44.0474 22.098 43.9865 22.4118 43.8652 22.7047C43.7438 22.9976 43.5643 23.2637 43.3372 23.4874C43.1102 23.711 42.8401 23.8878 42.5428 24.0073C42.2456 24.1269 41.9271 24.1867 41.6061 24.1834H4.87541V59.8338L9.60435 73.864C9.71189 74.1617 9.75833 74.4775 9.74096 74.7931C9.7236 75.1086 9.64277 75.4176 9.50319 75.7022C9.3636 75.9867 9.16803 76.241 8.92785 76.4504C8.68766 76.6598 8.40764 76.8201 8.10406 76.922C7.80048 77.0238 7.47939 77.0652 7.15943 77.0438C6.83948 77.0223 6.52704 76.9384 6.24028 76.7969C5.95351 76.6554 5.69812 76.4592 5.48896 76.2197C5.2798 75.9801 5.12102 75.702 5.02186 75.4015L4.87541 74.9693C4.77896 75.5405 4.48203 76.0603 4.03643 76.4378C3.59083 76.8153 3.02487 77.0266 2.43729 77.0349C2.11633 77.0381 1.79794 76.9781 1.50078 76.8586C1.20362 76.739 0.933651 76.5622 0.706682 76.3385C0.479714 76.1149 0.300307 75.8488 0.178964 75.556C0.0576216 75.2632 -0.00321761 74.9494 8.41962e-06 74.6331V21.7817C-0.00333091 21.4652 0.0574524 21.1513 0.178797 20.8584C0.300141 20.5654 0.479605 20.2992 0.706674 20.0754C0.933742 19.8517 1.20385 19.6748 1.50116 19.5552C1.79848 19.4357 2.11702 19.3758 2.43812 19.3791H41.6061C41.9272 19.3758 42.2457 19.4357 42.543 19.5552C42.8403 19.6748 43.1105 19.8517 43.3375 20.0754C43.5646 20.2992 43.7441 20.5654 43.8654 20.8584C43.9867 21.1513 44.0475 21.4652 44.0442 21.7817V21.7817Z" fill="#DE9E53"/>
<path d="M98.5873 26.9944V33.8824H107.974V38.2514H98.5873V45.533H109.174V50.02H92.9979V22.5074H109.174V26.9944H98.5873ZM122.719 50.3743C121.045 50.4013 119.384 50.0794 117.846 49.4296C116.498 48.843 115.318 47.9371 114.411 46.7925C113.601 45.7316 113.128 44.4577 113.053 43.132H118.685C118.736 43.5446 118.872 43.9425 119.085 44.3013C119.298 44.6601 119.583 44.9721 119.923 45.2181C120.724 45.7863 121.693 46.0769 122.679 46.0447C123.551 46.0967 124.418 45.8763 125.155 45.4149C125.435 45.2452 125.666 45.0078 125.826 44.7254C125.986 44.4429 126.07 44.1247 126.071 43.8011C126.072 43.457 125.966 43.1208 125.765 42.8388C125.565 42.5569 125.281 42.343 124.952 42.2267C123.836 41.7207 122.672 41.3252 121.477 41.0459C120.091 40.7331 118.729 40.3253 117.4 39.8258C116.354 39.4008 115.424 38.7403 114.684 37.8971C113.894 36.9007 113.497 35.6565 113.565 34.3941C113.557 33.2129 113.92 32.058 114.604 31.0879C115.381 30.045 116.43 29.2289 117.64 28.7263C119.122 28.1193 120.717 27.8244 122.322 27.8603C124.598 27.7441 126.839 28.4431 128.633 29.8283C129.414 30.4725 130.049 31.2715 130.496 32.1734C130.944 33.0754 131.193 34.06 131.229 35.0632H125.877C125.853 34.662 125.74 34.2707 125.547 33.9167C125.354 33.5627 125.085 33.2543 124.758 33.0132C124.015 32.4551 123.095 32.176 122.162 32.226C121.339 32.1791 120.52 32.3707 119.806 32.7771C119.55 32.9444 119.343 33.1734 119.203 33.4421C119.064 33.7108 118.996 34.0103 119.007 34.3121C119.006 34.6708 119.111 35.0221 119.31 35.3227C119.508 35.6233 119.792 35.8603 120.125 36.0046C121.242 36.4973 122.406 36.8796 123.6 37.146C124.945 37.4609 126.267 37.8686 127.554 38.3662C128.599 38.7909 129.52 39.4677 130.23 40.3342C131.042 41.3079 131.467 42.5385 131.429 43.7979C131.443 45.0109 131.064 46.1966 130.347 47.1828C129.584 48.2379 128.532 49.058 127.315 49.5477C125.856 50.1273 124.293 50.4086 122.721 50.3743H122.719ZM142.523 32.7443V43.2895C142.498 43.5789 142.53 43.8704 142.62 44.1474C142.709 44.4243 142.852 44.6812 143.043 44.9032C143.581 45.2657 144.23 45.4326 144.88 45.3755H147.476V50.02H143.961C139.246 50.02 136.888 47.7634 136.888 43.2501V32.741H134.252V28.2146H136.888V22.8223H142.52V28.2146H147.473V32.741L142.523 32.7443ZM172.388 28.2179V50.02H166.756V47.2648C166.014 48.2291 165.043 48.9994 163.928 49.5083C162.751 50.04 161.468 50.3088 160.173 50.2955C158.576 50.3259 156.996 49.9593 155.58 49.2295C154.24 48.4864 153.145 47.3799 152.425 46.0414C151.645 44.4755 151.261 42.747 151.306 41.0033V28.2113H156.898V40.2161C156.802 41.672 157.274 43.109 158.216 44.2341C158.683 44.7011 159.244 45.0653 159.864 45.3027C160.483 45.5402 161.147 45.6455 161.811 45.6117C162.481 45.6479 163.152 45.5439 163.778 45.3065C164.405 45.069 164.973 44.7036 165.446 44.2341C166.388 43.109 166.86 41.672 166.764 40.2161V28.2146L172.388 28.2179ZM176.466 39.0419C176.426 37.0115 176.878 35.0011 177.784 33.1772C178.612 31.5534 179.885 30.1901 181.458 29.2412C183.013 28.32 184.797 27.843 186.611 27.8636C188.038 27.8611 189.446 28.1844 190.725 28.8083C191.954 29.3523 193.025 30.1913 193.84 31.2486V20.8936H199.512V50.02H193.84V46.7925C193.118 47.8956 192.113 48.7917 190.928 49.3903C189.582 50.0683 188.086 50.4064 186.574 50.3743C184.768 50.3903 182.994 49.8988 181.462 48.9573C179.892 47.9863 178.622 46.6118 177.787 44.9819C176.882 43.1297 176.432 41.0938 176.473 39.0386L176.466 39.0419ZM193.884 39.114C193.92 37.924 193.645 36.7449 193.085 35.6897C192.598 34.7648 191.849 33.9991 190.929 33.4855C190.052 32.9769 189.055 32.7053 188.038 32.6984C187.021 32.6915 186.02 32.9495 185.137 33.4462C184.229 33.9761 183.485 34.7391 182.984 35.6536C182.427 36.6958 182.152 37.8614 182.185 39.0386C182.159 40.2402 182.433 41.4297 182.984 42.5023C183.493 43.4217 184.236 44.1948 185.14 44.7458C186.009 45.2605 187.003 45.5326 188.016 45.533C189.036 45.5368 190.04 45.2791 190.929 44.7851C191.837 44.257 192.583 43.495 193.085 42.581C193.642 41.5095 193.917 40.3174 193.884 39.114V39.114ZM203.537 39.032C203.497 37.0017 203.949 34.9913 204.855 33.1674C205.677 31.5515 206.935 30.1898 208.49 29.2314C210.044 28.3102 211.828 27.8332 213.642 27.8538C215.141 27.8184 216.625 28.1569 217.956 28.8378C219.132 29.4307 220.156 30.2785 220.952 31.3175V28.2146H226.587V50.02H220.955V46.8319C220.176 47.9067 219.15 48.7836 217.959 49.3903C216.613 50.0683 215.117 50.4064 213.606 50.3743C211.799 50.3903 210.026 49.8988 208.493 48.9573C206.942 47.9768 205.687 46.6039 204.858 44.9819C203.953 43.1298 203.502 41.0939 203.543 39.0386L203.537 39.032ZM220.952 39.114C220.987 37.924 220.712 36.7449 220.153 35.6897C219.665 34.7648 218.916 33.9991 217.996 33.4855C217.12 32.9769 216.122 32.7053 215.105 32.6984C214.088 32.6915 213.088 32.9495 212.204 33.4462C211.296 33.9747 210.55 34.7366 210.047 35.6503C209.491 36.6925 209.216 37.8581 209.249 39.0353C209.223 40.2369 209.497 41.4264 210.047 42.499C210.557 43.4184 211.3 44.1915 212.204 44.7425C213.073 45.2572 214.067 45.5293 215.08 45.5297C216.1 45.5335 217.104 45.2758 217.993 44.7819C218.901 44.2537 219.647 43.4917 220.149 42.5777C220.709 41.5081 220.987 40.317 220.957 39.114H220.952Z" fill="#2E2A2A"/>
<path d="M254 17.9088H246.451V25.5446H241.179V17.9088H233.63V13.1069H241.179V5.47104H246.451V13.1069H254V17.9088Z" fill="#2E2A2A"/>
</g>
<defs>
<clipPath id="clip0">
<rect width="254" height="82" fill="white"/>
</clipPath>
</defs>
</svg>
